<?xml version="1.0" encoding="UTF-8"?>
<svg id="Layer_1" xmlns="http://www.w3.org/2000/svg" version="1.1" viewBox="0 0 348 119.06">
  <!-- Generator: Adobe Illustrator 30.0.0, SVG Export Plug-In . SVG Version: 2.1.1 Build 123)  -->
  <defs>
    <style>
      .st0 {
        fill: #f5f5f3;
      }

      .st1 {
        fill: #d3cfde;
      }

      .st2 {
        fill: #d8d7dc;
      }

      .st3 {
        fill: #f8f9f9;
      }

      .st4 {
        fill: #c26060;
      }

      .st5 {
        fill: #f5f5f2;
      }

      .st6 {
        fill: #f8fcfb;
      }

      .st7 {
        fill: #f3dfe4;
      }

      .st8 {
        fill: #be6567;
      }

      .st9 {
        fill: #cddbe7;
      }

      .st10 {
        fill: #fdfefe;
      }

      .st11 {
        fill: #c6cbd4;
      }

      .st12 {
        fill: #fdfdfd;
      }

      .st13 {
        fill: #fcfdfd;
      }
    </style>
  </defs>
  <path class="st13" d="M281.04,43.89c.87,0,1.75.01,2.65.02.94,0,1.89,0,2.86,0,.99,0,1.99.02,3.01.03,1,0,1.99,0,3.02.01,2.47.01,4.94.03,7.42.05,1.32,3.3,2.64,6.6,4,10,.33-3.3.66-6.6,1-10,3.31-.03,6.62-.05,9.94-.06.95,0,1.89-.02,2.87-.03q1.35,0,2.72,0t2.52-.02q1.95.11,2.95,1.11c.09,2.67.12,5.31.1,7.97,0,.8,0,1.6,0,2.42,0,2.56-.02,5.12-.03,7.67,0,1.73,0,3.46-.01,5.19-.01,4.25-.03,8.5-.05,12.75-7.59-.33-15.18-.66-23-1-.99-2.31-1.98-4.62-3-7l-1,7h-21c-.02-4.97-.04-9.93-.05-14.9,0-1.69-.01-3.38-.02-5.07-.01-2.43-.02-4.85-.02-7.28,0-.76-.01-1.52-.02-2.3,0-1.82.05-3.63.11-5.45q1-1,3.04-1.11Z"/>
  <path class="st3" d="M10,95h328v5H10v-5Z"/>
  <path class="st10" d="M100,44h21q3,7,4,10,.09-.96.18-1.93c.08-.83.17-1.65.25-2.5.08-.82.16-1.65.25-2.5q.32-2.07,1.32-3.07c1.49-.09,2.98-.11,4.47-.1.81,0,1.62,0,2.45,0,1.04,0,2.07.02,3.14.03,3.28.02,6.56.04,9.94.06v36h-23c-.99-2.64-1.98-5.28-3-8l-1,8h-20v-36Z"/>
  <path class="st12" d="M171.57,43.87c.72,0,1.45,0,2.2,0,1.53,0,3.05,0,4.58,0,2.34,0,4.69,0,7.03,0,1.48,0,2.96,0,4.45,0,.7,0,1.41,0,2.13,0q4.93.02,6.04,1.14c.14,4.67.04,9.33,0,14q-12.38.49-25,1v5c2.31.33,4.62.66,7,1v-5c2.81-.03,5.62-.05,8.44-.06.8,0,1.6-.02,2.43-.03,2.04,0,4.09.04,6.13.09q1,1,1.11,2.77c0,.75-.01,1.5-.02,2.27,0,.81,0,1.62,0,2.45q-.01,1.28-.03,2.58c0,.85,0,1.71-.01,2.59-.01,2.12-.03,4.23-.05,6.35-5.28.1-10.57.17-15.85.22-1.8.02-3.59.05-5.39.08-2.59.05-5.18.07-7.77.09-.8.02-1.59.04-2.41.06-5.67,0-8.91-1.22-13.59-4.45-3.56-4.14-3.49-8.22-3.44-13.44-.02-.74-.04-1.48-.06-2.24,0-5.21,1.05-8.21,4.5-12.33,5.88-3.55,10.82-4.15,17.57-4.13Z"/>
  <path class="st12" d="M24.86,43.89q1.19,0,2.4.02t2.59,0c.9,0,1.8.02,2.72.03.9,0,1.8,0,2.73.01,2.24.01,4.47.03,6.71.05.33,2.97.66,5.94,1,9,1.65-2.97,3.3-5.94,5-9h21q.49.99,1,2c-.71,1.68-1.43,3.35-2.2,5q-3.55,7.42-2.86,15.37c.67,1.55,1.36,3.09,2.06,4.62.99,2.97,1.98,5.94,3,9h-23c-1.32-2.97-2.64-5.94-4-9l-2,9h-19c-.02-4.97-.04-9.93-.05-14.9,0-1.69-.01-3.38-.02-5.07-.01-2.43-.02-4.85-.02-7.28,0-.76-.01-1.52-.02-2.3,0-1.82.05-3.63.11-5.45q1-1,2.86-1.11Z"/>
  <path class="st12" d="M208.69,43.76c.78,0,1.56-.02,2.36-.02,1.66-.01,3.31-.02,4.97-.03,2.51-.02,5.02-.06,7.53-.11,1.61-.01,3.22-.02,4.83-.03q1.11-.03,2.25-.05c5.54.02,9.72,1.44,14.37,4.48,3.23,3.54,3.53,7.02,3.35,11.65-.57,3.88-1.8,7.34-4.35,10.35-5.01,3.29-9.57,3.53-15.38,3.69q-1.25.05-2.52.1c-2.03.08-4.07.15-6.11.21l-1,6h-19c-.02-4.97-.04-9.93-.05-14.9,0-1.69-.01-3.38-.02-5.07-.01-2.43-.02-4.85-.02-7.28,0-.76-.01-1.52-.02-2.3,0-1.82.05-3.63.11-5.45,2-2,5.95-1.21,8.69-1.24ZM220,59v3h10v-3h-10Z"/>
  <path class="st9" d="M267,9c2.58,1.9,2.96,2.89,4,6,0,1.52-.08,3.05-.19,4.57-.06.9-.11,1.79-.17,2.72-.13,1.87-.27,3.73-.41,5.6-.56,9.01,1.16,15.94,4.77,24.11,2.71,9.37.43,18-3.12,26.78q-1.88,2.22-5.45,2.71c-1.37-.03-2.74-.09-4.11-.18-.7-.02-1.4-.05-2.13-.07-1.73-.06-3.46-.15-5.19-.24-.82-1.56-1.63-3.12-2.44-4.69-.45-.87-.9-1.74-1.37-2.64-3.39-7.62-3.13-15.75-.32-23.49,1.02-2.55,2.07-5.07,3.2-7.57,2.41-6.78,1.7-12.84.51-19.74-.69-4.55-.45-7.66,1.42-11.87,3.34-3.84,6.3-3.2,11-2Z"/>
  <path class="st13" d="M10,23h239v5H10v-5Z"/>
  <path class="st12" d="M72,44q5.91-.03,11.94-.06c1.24,0,2.49-.02,3.77-.03q1.46,0,2.95,0t3.03-.02q2.32.11,3.32,1.11c.17,2.51.28,4.99.35,7.5.02.75.05,1.5.07,2.28.05,1.59.09,3.18.14,4.77.07,2.44.14,4.89.22,7.33.04,1.54.09,3.08.13,4.62.02.74.05,1.47.07,2.23.04,1.76.03,3.51.01,5.27q-1,1-3.41,1.11c-1.04,0-2.08-.01-3.16-.02-1.01,0-2.03,0-3.07,0-1.3,0-2.59-.02-3.93-.03-4.1-.02-8.21-.04-12.44-.06v-36Z"/>
  <path class="st5" d="M255,40c3.63.33,7.26.66,11,1,3.41,10.54,5.43,18.47,1,29-2.19,4.24-3.99,7.33-8,10q-2.69.12-5,0c-4.14-8.85-6.94-17.14-4.18-26.92.99-2.73,2.05-5.41,3.18-8.08.66-1.65,1.32-3.3,2-5Z"/>
  <path class="st6" d="M275,23h63v5h-62c-.33-1.65-.66-3.3-1-5Z"/>
  <path class="st0" d="M267,9c2.58,1.9,2.96,2.89,4,6-.09,2.4-.24,4.8-.44,7.19-.1,1.27-.2,2.54-.31,3.86-.08.98-.17,1.95-.25,2.96-1.75.05-3.5.09-5.25.12-.97.02-1.95.05-2.95.07-2.9-.2-4.48-.44-6.8-2.2-1.65-5.28-1.53-11.06,1-16,3.34-3.84,6.3-3.2,11-2Z"/>
  <path class="st8" d="M256,28h13v12c-3.14,1.57-6.56,1.23-10,1-.99-.33-1.98-.66-3-1v-12Z"/>
  <path class="st2" d="M260,8q6.47.61,8.88,2.38c2.68,3.87,2.06,7.31,1.69,11.81-.1,1.27-.2,2.54-.31,3.86-.08.98-.17,1.95-.25,2.96-1.75.05-3.5.09-5.25.12-.97.02-1.95.05-2.95.07-2.82-.2-4.41-.75-6.8-2.2v-5c.66,1.32,1.32,2.64,2,4h9c.05-1.92.09-3.83.12-5.75.02-1.07.05-2.13.07-3.23-.19-2.97-.56-4.56-2.2-7.02q-2.03-1.27-4-2Z"/>
  <path class="st4" d="M256,36h13v4c-3.14,1.57-6.56,1.23-10,1-.99-.33-1.98-.66-3-1v-4Z"/>
  <path class="st7" d="M256,32c3.96.33,7.92.66,12,1v3h-12v-4Z"/>
  <path class="st1" d="M269,36h1c.05,1.94.09,3.87.12,5.81.02,1.08.05,2.16.07,3.27q-.2,2.92-2.2,5.92c-1.63-4.12-2.26-6.71-1-11h2v-4Z"/>
  <path class="st11" d="M268,21h2v8c-1.32-.33-2.64-.66-4-1,.66-2.31,1.32-4.62,2-7Z"/>
</svg>