<?xml version="1.0" encoding="UTF-8"?>
<svg version="1.1" xmlns="http://www.w3.org/2000/svg" width="500" height="500">
<path d="M0 0 C0.87454834 0.00523682 1.74909668 0.01047363 2.65014648 0.01586914 C3.59438477 0.0190918 4.53862305 0.02231445 5.51147461 0.02563477 C6.50469727 0.03401367 7.49791992 0.04239258 8.52124023 0.05102539 C9.51833008 0.05553711 10.51541992 0.06004883 11.54272461 0.06469727 C14.0147551 0.07652516 16.48675496 0.09446124 18.95874023 0.11352539 C20.27874023 3.41352539 21.59874023 6.71352539 22.95874023 10.11352539 C23.28874023 6.81352539 23.61874023 3.51352539 23.95874023 0.11352539 C27.27129349 0.08669103 30.58363206 0.06676759 33.89624023 0.05102539 C34.84176758 0.04264648 35.78729492 0.03426758 36.76147461 0.02563477 C38.11015625 0.02080078 38.11015625 0.02080078 39.48608398 0.01586914 C40.7350647 0.00801392 40.7350647 0.00801392 42.00927734 0 C43.95874023 0.11352539 43.95874023 0.11352539 44.95874023 1.11352539 C45.04729184 3.77978569 45.07398697 6.41999653 45.05639648 9.08618164 C45.05498154 9.88382431 45.05356659 10.68146698 45.05210876 11.50328064 C45.0464934 14.06089974 45.03393835 16.61843257 45.02124023 19.17602539 C45.01622721 20.90584184 45.01166396 22.63565965 45.00756836 24.36547852 C44.99736815 28.61488778 44.97779591 32.86410955 44.95874023 37.11352539 C37.36874023 36.78352539 29.77874023 36.45352539 21.95874023 36.11352539 C20.96874023 33.80352539 19.97874023 31.49352539 18.95874023 29.11352539 C18.62874023 31.42352539 18.29874023 33.73352539 17.95874023 36.11352539 C11.02874023 36.11352539 4.09874023 36.11352539 -3.04125977 36.11352539 C-3.06416933 31.14724105 -3.08409619 26.18113876 -3.09619141 21.21484375 C-3.10123166 19.52408224 -3.10806381 17.8333251 -3.11669922 16.14257812 C-3.12877833 13.71751832 -3.134491 11.29251595 -3.13891602 8.86743164 C-3.1440773 8.10701065 -3.14923859 7.34658966 -3.15455627 6.56312561 C-3.15475214 4.74619969 -3.10323253 2.92939412 -3.04125977 1.11352539 C-2.04125977 0.11352539 -2.04125977 0.11352539 0 0 Z " fill="#FCFDFD" transform="translate(357.041259765625,229.886474609375)"/>
<path d="M0 0 C108.24 0 216.48 0 328 0 C328 1.65 328 3.3 328 5 C219.76 5 111.52 5 0 5 C0 3.35 0 1.7 0 0 Z " fill="#F8F9F9" transform="translate(86,281)"/>
<path d="M0 0 C6.93 0 13.86 0 21 0 C24 7 24 7 25 10 C25.09087891 9.04287109 25.09087891 9.04287109 25.18359375 8.06640625 C25.26738281 7.24011719 25.35117188 6.41382813 25.4375 5.5625 C25.51871094 4.73878906 25.59992188 3.91507813 25.68359375 3.06640625 C26 1 26 1 27 0 C28.4887186 -0.08669432 29.981445 -0.10703494 31.47265625 -0.09765625 C32.28226807 -0.09515869 33.09187988 -0.09266113 33.92602539 -0.09008789 C34.96106201 -0.08098389 35.99609863 -0.07187988 37.0625 -0.0625 C40.341875 -0.041875 43.62125 -0.02125 47 0 C47 11.88 47 23.76 47 36 C39.41 36 31.82 36 24 36 C23.01 33.36 22.02 30.72 21 28 C20.67 30.64 20.34 33.28 20 36 C13.4 36 6.8 36 0 36 C0 24.12 0 12.24 0 0 Z " fill="#FDFEFE" transform="translate(176,230)"/>
<path d="M0 0 C0.72443802 -0.00095673 1.44887604 -0.00191345 2.19526672 -0.00289917 C3.72075488 -0.00357783 5.24624596 -0.0017455 6.77172852 0.00244141 C9.11546226 0.0078175 11.45900639 0.00247391 13.80273438 -0.00390625 C15.28515667 -0.00324587 16.76757886 -0.00196554 18.25 0 C18.95412521 -0.00202423 19.65825043 -0.00404846 20.38371277 -0.00613403 C25.31081349 0.01784474 25.31081349 0.01784474 26.42578125 1.1328125 C26.57004739 5.80126478 26.4678654 10.46147203 26.42578125 15.1328125 C14.05078125 15.6278125 14.05078125 15.6278125 1.42578125 16.1328125 C1.42578125 17.7828125 1.42578125 19.4328125 1.42578125 21.1328125 C3.73578125 21.4628125 6.04578125 21.7928125 8.42578125 22.1328125 C8.42578125 20.4828125 8.42578125 18.8328125 8.42578125 17.1328125 C11.23834406 17.10596938 14.05065366 17.08605062 16.86328125 17.0703125 C17.66572266 17.06193359 18.46816406 17.05355469 19.29492188 17.04492188 C21.33873346 17.0362982 23.38262027 17.080531 25.42578125 17.1328125 C26.42578125 18.1328125 26.42578125 18.1328125 26.53930664 19.89868164 C26.53406982 20.64754639 26.52883301 21.39641113 26.5234375 22.16796875 C26.52021484 22.97685547 26.51699219 23.78574219 26.51367188 24.61914062 C26.50110352 25.8943457 26.50110352 25.8943457 26.48828125 27.1953125 C26.48376953 28.04931641 26.47925781 28.90332031 26.47460938 29.78320312 C26.46278498 31.89976913 26.44484894 34.01629935 26.42578125 36.1328125 C21.14222623 36.23212026 15.85922141 36.30448714 10.57495117 36.35253906 C8.77960743 36.37258251 6.98432838 36.39982501 5.18920898 36.43457031 C2.59993475 36.48341099 0.01152785 36.5058537 -2.578125 36.5234375 C-3.37319962 36.54408264 -4.16827423 36.56472778 -4.98744202 36.58599854 C-10.65953223 36.5882526 -13.89601897 35.36854867 -18.57421875 32.1328125 C-22.13196151 27.99302593 -22.06155025 23.90949988 -22.01171875 18.6953125 C-22.03169922 17.95732422 -22.05167969 17.21933594 -22.07226562 16.45898438 C-22.06763199 11.24614873 -21.02267985 8.24851653 -17.57421875 4.1328125 C-11.69326969 0.57973911 -6.7569175 -0.01959389 0 0 Z " fill="#FDFDFD" transform="translate(247.57421875,229.8671875)"/>
<path d="M0 0 C1.18613892 0.00785522 1.18613892 0.00785522 2.39624023 0.01586914 C3.67724609 0.02070313 3.67724609 0.02070313 4.98413086 0.02563477 C5.88196289 0.03401367 6.77979492 0.04239258 7.70483398 0.05102539 C8.6065332 0.05553711 9.50823242 0.06004883 10.43725586 0.06469727 C12.67230988 0.07652295 14.90733 0.09445901 17.14233398 0.11352539 C17.47233398 3.08352539 17.80233398 6.05352539 18.14233398 9.11352539 C19.79233398 6.14352539 21.44233398 3.17352539 23.14233398 0.11352539 C30.07233398 0.11352539 37.00233398 0.11352539 44.14233398 0.11352539 C44.63733398 1.10352539 44.63733398 1.10352539 45.14233398 2.11352539 C44.43352646 3.79117635 43.71554884 5.46578135 42.94287109 7.11499023 C39.39390144 14.53213292 39.39390144 14.53213292 40.07983398 22.48852539 C40.75002386 24.0377955 41.44080467 25.57819188 42.14233398 27.11352539 C43.13233398 30.08352539 44.12233398 33.05352539 45.14233398 36.11352539 C37.55233398 36.11352539 29.96233398 36.11352539 22.14233398 36.11352539 C20.82233398 33.14352539 19.50233398 30.17352539 18.14233398 27.11352539 C17.48233398 30.08352539 16.82233398 33.05352539 16.14233398 36.11352539 C9.87233398 36.11352539 3.60233398 36.11352539 -2.85766602 36.11352539 C-2.88057558 31.14724105 -2.90050244 26.18113876 -2.91259766 21.21484375 C-2.91763791 19.52408224 -2.92447006 17.8333251 -2.93310547 16.14257812 C-2.94518458 13.71751832 -2.95089725 11.29251595 -2.95532227 8.86743164 C-2.96048355 8.10701065 -2.96564484 7.34658966 -2.97096252 6.56312561 C-2.97115839 4.74619969 -2.91963878 2.92939412 -2.85766602 1.11352539 C-1.85766602 0.11352539 -1.85766602 0.11352539 0 0 Z " fill="#FDFDFD" transform="translate(100.857666015625,229.886474609375)"/>
<path d="M0 0 C0.77866928 -0.00807175 1.55733856 -0.01614349 2.35960388 -0.02445984 C4.01485964 -0.03832316 5.67014425 -0.04903521 7.32543945 -0.05688477 C9.83667014 -0.07398435 12.34654497 -0.11783325 14.85742188 -0.16210938 C16.46743825 -0.17224624 18.07746582 -0.18075922 19.6875 -0.1875 C20.80204308 -0.21376213 20.80204308 -0.21376213 21.93910217 -0.24055481 C27.47860424 -0.21794936 31.6612089 1.19991712 36.30859375 4.23828125 C39.54270071 7.77558574 39.83404046 11.26034311 39.65625 15.890625 C39.08187116 19.76929562 37.85541804 23.228398 35.30859375 26.23828125 C30.30185986 29.52776647 25.73487751 29.76386344 19.93359375 29.92578125 C18.68642578 29.97702148 18.68642578 29.97702148 17.4140625 30.02929688 C15.37936024 30.11115271 13.34400167 30.17640826 11.30859375 30.23828125 C10.97859375 32.21828125 10.64859375 34.19828125 10.30859375 36.23828125 C4.03859375 36.23828125 -2.23140625 36.23828125 -8.69140625 36.23828125 C-8.71431581 31.27199691 -8.73424268 26.30589462 -8.74633789 21.33959961 C-8.75137815 19.64883809 -8.7582103 17.95808096 -8.7668457 16.26733398 C-8.77892482 13.84227418 -8.78463748 11.41727181 -8.7890625 8.9921875 C-8.79422379 8.23176651 -8.79938507 7.47134552 -8.80470276 6.68788147 C-8.80489863 4.87095555 -8.75337902 3.05414998 -8.69140625 1.23828125 C-6.69408271 -0.75904229 -2.73673118 0.02669848 0 0 Z M11.30859375 15.23828125 C11.30859375 16.22828125 11.30859375 17.21828125 11.30859375 18.23828125 C14.60859375 18.23828125 17.90859375 18.23828125 21.30859375 18.23828125 C21.30859375 17.24828125 21.30859375 16.25828125 21.30859375 15.23828125 C18.00859375 15.23828125 14.70859375 15.23828125 11.30859375 15.23828125 Z " fill="#FDFDFD" transform="translate(284.69140625,229.76171875)"/>
<path d="M0 0 C2.58455285 1.89533875 2.96275506 2.88826517 4 6 C3.99281932 7.52475603 3.92141587 9.0497193 3.80859375 10.5703125 C3.75123047 11.4675 3.69386719 12.3646875 3.63476562 13.2890625 C3.50485828 15.15664139 3.36957801 17.02385553 3.22851562 18.890625 C2.6703029 27.89902339 4.38732669 34.83221687 8 43 C10.71356957 52.37414941 8.43003753 61.00084485 4.875 69.77734375 C3 72 3 72 -0.57421875 72.48828125 C-1.94616376 72.45514248 -3.3176753 72.39563595 -4.6875 72.3125 C-5.38939453 72.28994141 -6.09128906 72.26738281 -6.81445312 72.24414062 C-8.5438833 72.18531647 -10.27221438 72.09563389 -12 72 C-12.82011312 70.44148245 -13.63076213 68.87798284 -14.4375 67.3125 C-14.88996094 66.44238281 -15.34242188 65.57226562 -15.80859375 64.67578125 C-19.20318002 57.05187438 -18.93461951 48.92700952 -16.125 41.1875 C-15.10804561 38.63758102 -14.05297902 36.11813935 -12.9296875 33.61328125 C-10.51918687 26.8375463 -11.23388557 20.77642516 -12.41601562 13.87304688 C-13.10220131 9.3232424 -12.8681317 6.21269968 -11 2 C-7.65728553 -1.83793142 -4.69581617 -1.19529866 0 0 Z " fill="#CDDBE7" transform="translate(343,195)"/>
<path d="M0 0 C78.87 0 157.74 0 239 0 C239 1.65 239 3.3 239 5 C160.13 5 81.26 5 0 5 C0 3.35 0 1.7 0 0 Z " fill="#FCFDFD" transform="translate(86,209)"/>
<path d="M0 0 C5.9090625 -0.0309375 5.9090625 -0.0309375 11.9375 -0.0625 C13.18136475 -0.071604 14.42522949 -0.08070801 15.70678711 -0.09008789 C17.16483765 -0.09383423 17.16483765 -0.09383423 18.65234375 -0.09765625 C20.15269165 -0.10551147 20.15269165 -0.10551147 21.68334961 -0.11352539 C24 0 24 0 25 1 C25.1722857 3.50708024 25.28380005 5.98945443 25.3515625 8.5 C25.37471527 9.25087891 25.39786804 10.00175781 25.42172241 10.77539062 C25.46941945 12.36581529 25.51464643 13.95631562 25.55761719 15.546875 C25.62472166 17.98986667 25.70245518 20.43236066 25.78125 22.875 C25.82616268 24.4166481 25.87045447 25.95831444 25.9140625 27.5 C25.93796051 28.23541016 25.96185852 28.97082031 25.98648071 29.72851562 C26.03022392 31.4851383 26.02052376 33.24295263 26 35 C25 36 25 36 22.59155273 36.11352539 C21.54942627 36.10828857 20.5072998 36.10305176 19.43359375 36.09765625 C18.42095459 36.09515869 17.40831543 36.09266113 16.36499023 36.09008789 C15.06891846 36.08098389 13.77284668 36.07187988 12.4375 36.0625 C8.333125 36.041875 4.22875 36.02125 0 36 C0 24.12 0 12.24 0 0 Z " fill="#FDFDFD" transform="translate(148,230)"/>
<path d="M0 0 C3.63 0.33 7.26 0.66 11 1 C14.41277616 11.53509164 16.42756031 19.47186996 12 30 C9.80609052 34.23919928 8.01043069 37.32637954 4 40 C1.3125 40.125 1.3125 40.125 -1 40 C-5.14335703 31.15441452 -7.93868087 22.86348156 -5.17578125 13.08203125 C-4.18516941 10.35324547 -3.12606077 7.67542177 -2 5 C-1.34 3.35 -0.68 1.7 0 0 Z " fill="#F5F5F2" transform="translate(331,226)"/>
<path d="M0 0 C20.79 0 41.58 0 63 0 C63 1.65 63 3.3 63 5 C42.54 5 22.08 5 1 5 C0.67 3.35 0.34 1.7 0 0 Z " fill="#F8FCFB" transform="translate(351,209)"/>
<path d="M0 0 C2.58455285 1.89533875 2.96275506 2.88826517 4 6 C3.91343435 8.39870613 3.76001509 10.79537281 3.5625 13.1875 C3.46066406 14.45980469 3.35882813 15.73210937 3.25390625 17.04296875 C3.17011719 18.01878906 3.08632813 18.99460938 3 20 C1.25034642 20.05429959 -0.49979787 20.09292823 -2.25 20.125 C-3.22453125 20.14820313 -4.1990625 20.17140625 -5.203125 20.1953125 C-8.10286095 19.99281697 -9.68710652 19.75865172 -12 18 C-13.65324145 12.71722847 -13.53079587 6.94107765 -11 2 C-7.65728553 -1.83793142 -4.69581617 -1.19529866 0 0 Z " fill="#F5F5F3" transform="translate(343,195)"/>
<path d="M0 0 C4.29 0 8.58 0 13 0 C13 3.96 13 7.92 13 12 C9.85658007 13.57170996 6.44228549 13.23175783 3 13 C2.01 12.67 1.02 12.34 0 12 C0 8.04 0 4.08 0 0 Z " fill="#BE6567" transform="translate(332,214)"/>
<path d="M0 0 C6.46850394 0.61023622 6.46850394 0.61023622 8.875 2.375 C11.55470129 6.24567964 10.93391077 9.68930285 10.5625 14.1875 C10.46066406 15.45980469 10.35882813 16.73210937 10.25390625 18.04296875 C10.17011719 19.01878906 10.08632813 19.99460938 10 21 C8.25034642 21.05429959 6.50020213 21.09292823 4.75 21.125 C3.77546875 21.14820313 2.8009375 21.17140625 1.796875 21.1953125 C-1.0196498 20.99862781 -2.60949036 20.44568916 -5 19 C-5 17.35 -5 15.7 -5 14 C-4.34 15.32 -3.68 16.64 -3 18 C-0.03 18 2.94 18 6 18 C6.05423638 16.08364783 6.09289963 14.16685075 6.125 12.25 C6.14820313 11.18265625 6.17140625 10.1153125 6.1953125 9.015625 C6.00283342 6.04374807 5.63569259 4.45353888 4 2 C1.9664052 0.73195434 1.9664052 0.73195434 0 0 Z " fill="#D8D7DC" transform="translate(336,194)"/>
<path d="M0 0 C4.29 0 8.58 0 13 0 C13 1.32 13 2.64 13 4 C9.85658007 5.57170996 6.44228549 5.23175783 3 5 C2.01 4.67 1.02 4.34 0 4 C0 2.68 0 1.36 0 0 Z " fill="#C26060" transform="translate(332,222)"/>
<path d="M0 0 C3.96 0.33 7.92 0.66 12 1 C12 1.99 12 2.98 12 4 C8.04 4 4.08 4 0 4 C0 2.68 0 1.36 0 0 Z " fill="#F3DFE4" transform="translate(332,218)"/>
<path d="M0 0 C0.33 0 0.66 0 1 0 C1.05406122 1.93719378 1.09282025 3.87481921 1.125 5.8125 C1.14820313 6.89144531 1.17140625 7.97039062 1.1953125 9.08203125 C1 12 1 12 -1 15 C-2.62950412 10.87831311 -3.26264601 8.29299643 -2 4 C-1.34 4 -0.68 4 0 4 C0 2.68 0 1.36 0 0 Z " fill="#D3CFDE" transform="translate(345,222)"/>
<path d="M0 0 C0.66 0 1.32 0 2 0 C2 2.64 2 5.28 2 8 C0.68 7.67 -0.64 7.34 -2 7 C-1.34 4.69 -0.68 2.38 0 0 Z " fill="#C6CBD4" transform="translate(344,207)"/>
</svg>
