<svg version="1.1" id="Layer_1" xmlns="http://www.w3.org/2000/svg" xmlns:xlink="http://www.w3.org/1999/xlink" x="0px" y="0px"
	 width="100%" viewBox="0 0 500 500" enable-background="new 0 0 500 500" xml:space="preserve">
<path fill="#000000" opacity="1.000000" stroke="none" 
	d="
M271.000000,501.000000 
	C180.666687,501.000000 90.833374,501.000000 1.000048,501.000000 
	C1.000032,334.333405 1.000032,167.666794 1.000016,1.000138 
	C167.666565,1.000092 334.333130,1.000092 500.999756,1.000046 
	C500.999847,167.666519 500.999847,334.333038 500.999939,500.999786 
	C424.500000,501.000000 348.000000,501.000000 271.000000,501.000000 
M333.983734,220.009018 
	C333.983734,220.009018 333.909058,220.038940 333.875061,220.645416 
	C333.628540,221.166183 333.382050,221.686951 332.947815,222.966553 
	C332.950623,224.266251 332.953400,225.565964 332.314880,227.256653 
	C331.674225,228.902313 331.197693,230.636398 330.366455,232.179382 
	C324.526001,243.020889 324.824768,253.772980 330.223389,264.725098 
	C331.595215,267.508179 333.192627,268.393158 336.879639,267.994415 
	C338.863464,268.000549 340.865723,268.175323 342.825531,267.961395 
	C344.507782,267.777771 347.132996,267.646271 347.637512,266.638672 
	C351.189331,259.545044 354.490967,252.156891 352.373810,243.966141 
	C350.942230,238.427719 348.705292,233.097488 346.706787,227.094238 
	C345.495636,225.705887 344.284485,224.317551 343.004395,222.246765 
	C342.985382,221.562653 342.966370,220.878540 343.585205,219.783295 
	C343.669891,218.793274 343.754608,217.803238 344.279572,216.158676 
	C344.924683,216.002106 345.856750,216.064392 346.169525,215.654312 
	C348.656952,212.393036 348.672180,201.253433 345.677338,198.573807 
	C343.677917,196.784821 340.560974,195.208145 338.047974,195.351883 
	C335.969910,195.470718 332.866486,197.907532 332.284058,199.916473 
	C330.865021,204.810883 331.027100,210.024536 333.026123,215.699036 
	C333.051971,216.765869 333.077850,217.832687 333.020691,219.475891 
	C333.329498,219.677475 333.638336,219.879059 333.983734,220.009018 
M355.071106,251.497162 
	C355.071106,256.590363 355.071106,261.683594 355.071106,266.733276 
	C362.325500,266.733276 369.064697,266.733276 376.141052,266.733276 
	C376.141052,263.800354 376.141052,261.126007 376.141052,257.572144 
	C377.067657,259.214111 377.882660,260.002319 377.914429,260.820953 
	C378.123901,266.219208 381.108093,267.436737 385.997803,267.092407 
	C391.536285,266.702393 397.123352,267.002441 402.997681,267.002441 
	C402.997681,256.438202 403.089752,245.314041 402.851562,234.196976 
	C402.828400,233.116089 400.812042,231.229523 399.641357,231.165176 
	C393.882904,230.848755 388.097565,231.021423 382.269257,231.021423 
	C382.025269,234.947693 381.809448,238.421402 381.593597,241.895096 
	C380.165436,240.992599 379.905212,240.096725 379.591980,239.219803 
	C376.666046,231.028519 376.663452,231.031754 368.009003,231.035110 
	C364.849213,231.036331 361.634735,230.683228 358.555450,231.178024 
	C357.246979,231.388290 355.312836,233.298172 355.225739,234.544800 
	C354.855774,239.840591 355.071625,245.177322 355.071106,251.497162 
M222.500000,282.033356 
	C177.390503,282.033356 132.281006,282.033356 87.273521,282.033356 
	C87.273521,283.974365 87.273521,285.375244 87.273521,286.750061 
	C196.647491,286.750061 305.738037,286.750061 415.042969,286.750061 
	C414.959930,285.073181 414.890411,283.669617 414.809387,282.033356 
	C350.783051,282.033356 287.141510,282.033356 222.500000,282.033356 
M198.939880,232.484329 
	C198.288635,232.011444 197.643585,231.137848 196.985184,231.127670 
	C190.394669,231.025650 183.801941,231.065674 177.287964,231.065674 
	C177.287964,243.336594 177.287964,255.065704 177.287964,266.731445 
	C183.998444,266.731445 190.414948,266.731445 197.173737,266.731445 
	C197.173737,263.788757 197.173737,261.107666 197.173737,258.426544 
	C198.736496,260.124603 199.171722,262.118713 200.086548,263.861023 
	C200.729263,265.085052 201.992035,266.821655 203.034668,266.861938 
	C209.949615,267.129395 216.879883,267.000366 223.715469,267.000366 
	C223.715469,254.679337 223.715469,242.948212 223.715469,231.015732 
	C220.124466,231.015732 216.816803,231.015839 213.509140,231.015701 
	C203.286987,231.015289 203.289566,231.015350 202.943985,241.033600 
	C202.937469,241.222198 202.635757,241.400620 202.001724,242.108841 
	C200.928787,238.941498 199.978592,236.136459 198.939880,232.484329 
M274.035736,255.797363 
	C274.915375,252.787109 277.283569,248.919342 271.920624,248.187042 
	C267.070679,247.524796 262.058990,248.047150 257.118622,248.047150 
	C257.412781,248.466187 257.706940,248.885239 258.001099,249.304276 
	C256.763947,250.853348 255.337555,253.790619 254.330368,253.653290 
	C252.420746,253.392929 249.803009,251.712341 249.186920,250.005417 
	C248.033081,246.808685 250.379715,245.870361 253.429550,245.930084 
	C260.524780,246.069031 267.624603,245.974380 274.972687,245.974380 
	C274.972687,241.925690 274.824127,238.444305 275.016815,234.981903 
	C275.189880,231.872101 273.890778,230.918869 270.912323,230.961746 
	C261.921692,231.091171 252.895447,230.545303 243.946259,231.169128 
	C237.218689,231.638077 229.885254,232.779221 227.782471,240.934326 
	C226.778809,244.826797 227.323547,249.100159 226.980072,253.185272 
	C226.366623,260.481171 231.429794,266.235748 238.136993,266.723389 
	C250.342728,267.610718 262.659149,266.975342 275.227295,266.975342 
	C274.774078,263.161133 274.389282,259.922546 274.035736,255.797363 
M120.591537,258.058441 
	C121.231880,259.693298 122.130272,261.278534 122.456459,262.973846 
	C123.053329,266.076080 124.546532,267.225861 127.816093,267.080627 
	C134.051712,266.803589 140.308395,267.000244 146.935089,267.000244 
	C145.690140,263.750366 144.814514,260.805664 143.469666,258.093628 
	C140.823700,252.757675 139.614243,247.625427 142.910431,241.986160 
	C144.687561,238.945755 145.601868,235.401016 147.320557,231.027527 
	C140.459625,231.027527 134.552338,231.293945 128.684952,230.925201 
	C125.296165,230.712219 124.065353,232.359268 122.993340,234.974930 
	C122.148430,237.036453 121.013710,238.979218 120.007713,240.974716 
	C119.620659,240.817642 119.233597,240.660583 118.846535,240.503510 
	C118.846535,237.433029 118.846535,234.362549 118.846535,231.028595 
	C113.222824,231.028595 107.916862,230.845825 102.640862,231.162338 
	C101.385178,231.237686 99.208084,232.959412 99.184998,233.963638 
	C98.934120,244.878235 99.028114,255.800751 99.028114,266.774445 
	C105.594261,266.774445 111.674637,266.774445 116.997627,266.774445 
	C118.092896,263.400726 119.046509,260.463348 120.591537,258.058441 
M323.103668,252.398163 
	C328.605499,239.040619 321.947113,232.010239 311.507965,231.191498 
	C301.263580,230.388016 290.904449,230.922836 280.601929,231.151413 
	C279.388397,231.178329 277.200684,232.959839 277.177673,233.967117 
	C276.928375,244.875183 277.021942,255.791077 277.021942,266.809387 
	C283.595032,266.809387 289.684967,266.809387 294.752106,266.809387 
	C296.242065,264.477173 297.036926,261.653656 298.516296,261.232056 
	C302.064026,260.221039 305.940094,260.002716 309.671295,260.078033 
	C315.485809,260.195343 320.003204,258.307281 323.103668,252.398163 
M325.993378,212.477936 
	C326.106354,208.058731 322.704712,210.096024 320.992828,210.093781 
	C244.571701,209.993912 168.150436,210.015106 91.729172,210.021866 
	C90.269936,210.022003 88.810707,210.021881 87.192764,210.021881 
	C87.192764,211.833374 87.192764,213.231613 87.192764,214.986481 
	C93.173294,214.986481 98.967529,214.986877 104.761757,214.986420 
	C177.020630,214.980804 249.279510,214.984329 321.538300,214.904709 
	C323.022156,214.903076 324.504974,213.935623 325.993378,212.477936 
M149.033997,243.512329 
	C149.033997,251.252777 149.033997,258.993225 149.033997,266.482300 
	C157.835602,266.482300 166.143707,266.482300 174.441833,266.482300 
	C174.269714,264.101288 174.029205,262.240631 174.018799,260.378723 
	C173.971497,251.913040 174.099579,243.443970 173.869385,234.984161 
	C173.832962,233.645279 172.331482,231.242828 171.428970,231.205048 
	C164.040466,230.895782 156.633377,231.030746 149.030060,231.030746 
	C149.030060,235.256195 149.030060,238.887665 149.033997,243.512329 
M415.002289,213.434067 
	C415.561157,210.490189 414.162842,209.933594 411.456818,209.953491 
	C395.964203,210.067398 380.470215,209.997269 364.976715,209.990601 
	C360.695740,209.988770 356.414734,209.990326 352.333221,209.990326 
	C351.318390,214.356201 353.375458,215.018295 356.641785,215.004105 
	C375.133423,214.923767 393.625641,214.983200 412.117615,214.954376 
	C413.053192,214.952927 413.988159,214.574539 415.002289,213.434067 
z"/>
<path fill="#FDFEFE" opacity="1.000000" stroke="none" 
	d="
M355.072296,250.998138 
	C355.071625,245.177322 354.855774,239.840591 355.225739,234.544800 
	C355.312836,233.298172 357.246979,231.388290 358.555450,231.178024 
	C361.634735,230.683228 364.849213,231.036331 368.009003,231.035110 
	C376.663452,231.031754 376.666046,231.028519 379.591980,239.219803 
	C379.905212,240.096725 380.165436,240.992599 381.593597,241.895096 
	C381.809448,238.421402 382.025269,234.947693 382.269257,231.021423 
	C388.097565,231.021423 393.882904,230.848755 399.641357,231.165176 
	C400.812042,231.229523 402.828400,233.116089 402.851562,234.196976 
	C403.089752,245.314041 402.997681,256.438202 402.997681,267.002441 
	C397.123352,267.002441 391.536285,266.702393 385.997803,267.092407 
	C381.108093,267.436737 378.123901,266.219208 377.914429,260.820953 
	C377.882660,260.002319 377.067657,259.214111 376.141052,257.572144 
	C376.141052,261.126007 376.141052,263.800354 376.141052,266.733276 
	C369.064697,266.733276 362.325500,266.733276 355.071106,266.733276 
	C355.071106,261.683594 355.071106,256.590363 355.072296,250.998138 
z"/>
<path fill="#F8FAF9" opacity="1.000000" stroke="none" 
	d="
M223.000000,282.033356 
	C287.141510,282.033356 350.783051,282.033356 414.809387,282.033356 
	C414.890411,283.669617 414.959930,285.073181 415.042969,286.750061 
	C305.738037,286.750061 196.647491,286.750061 87.273521,286.750061 
	C87.273521,285.375244 87.273521,283.974365 87.273521,282.033356 
	C132.281006,282.033356 177.390503,282.033356 223.000000,282.033356 
z"/>
<path fill="#FEFEFE" opacity="1.000000" stroke="none" 
	d="
M198.984131,232.907867 
	C199.978592,236.136459 200.928787,238.941498 202.001724,242.108841 
	C202.635757,241.400620 202.937469,241.222198 202.943985,241.033600 
	C203.289566,231.015350 203.286987,231.015289 213.509140,231.015701 
	C216.816803,231.015839 220.124466,231.015732 223.715469,231.015732 
	C223.715469,242.948212 223.715469,254.679337 223.715469,267.000366 
	C216.879883,267.000366 209.949615,267.129395 203.034668,266.861938 
	C201.992035,266.821655 200.729263,265.085052 200.086548,263.861023 
	C199.171722,262.118713 198.736496,260.124603 197.173737,258.426544 
	C197.173737,261.107666 197.173737,263.788757 197.173737,266.731445 
	C190.414948,266.731445 183.998444,266.731445 177.287964,266.731445 
	C177.287964,255.065704 177.287964,243.336594 177.287964,231.065674 
	C183.801941,231.065674 190.394669,231.025650 196.985184,231.127670 
	C197.643585,231.137848 198.288635,232.011444 198.984131,232.907867 
z"/>
<path fill="#FDFEFE" opacity="1.000000" stroke="none" 
	d="
M274.020111,256.240662 
	C274.389282,259.922546 274.774078,263.161133 275.227295,266.975342 
	C262.659149,266.975342 250.342728,267.610718 238.136993,266.723389 
	C231.429794,266.235748 226.366623,260.481171 226.980072,253.185272 
	C227.323547,249.100159 226.778809,244.826797 227.782471,240.934326 
	C229.885254,232.779221 237.218689,231.638077 243.946259,231.169128 
	C252.895447,230.545303 261.921692,231.091171 270.912323,230.961746 
	C273.890778,230.918869 275.189880,231.872101 275.016815,234.981903 
	C274.824127,238.444305 274.972687,241.925690 274.972687,245.974380 
	C267.624603,245.974380 260.524780,246.069031 253.429550,245.930084 
	C250.379715,245.870361 248.033081,246.808685 249.186920,250.005417 
	C249.803009,251.712341 252.420746,253.392929 254.330368,253.653290 
	C255.337555,253.790619 256.763947,250.853348 258.001099,249.304276 
	C257.706940,248.885239 257.412781,248.466187 257.118622,248.047150 
	C262.058990,248.047150 267.070679,247.524796 271.920624,248.187042 
	C277.283569,248.919342 274.915375,252.787109 274.020111,256.240662 
z"/>
<path fill="#FEFEFE" opacity="1.000000" stroke="none" 
	d="
M120.295837,257.792175 
	C119.046509,260.463348 118.092896,263.400726 116.997627,266.774445 
	C111.674637,266.774445 105.594261,266.774445 99.028114,266.774445 
	C99.028114,255.800751 98.934120,244.878235 99.184998,233.963638 
	C99.208084,232.959412 101.385178,231.237686 102.640862,231.162338 
	C107.916862,230.845825 113.222824,231.028595 118.846535,231.028595 
	C118.846535,234.362549 118.846535,237.433029 118.846535,240.503510 
	C119.233597,240.660583 119.620659,240.817642 120.007713,240.974716 
	C121.013710,238.979218 122.148430,237.036453 122.993340,234.974930 
	C124.065353,232.359268 125.296165,230.712219 128.684952,230.925201 
	C134.552338,231.293945 140.459625,231.027527 147.320557,231.027527 
	C145.601868,235.401016 144.687561,238.945755 142.910431,241.986160 
	C139.614243,247.625427 140.823700,252.757675 143.469666,258.093628 
	C144.814514,260.805664 145.690140,263.750366 146.935089,267.000244 
	C140.308395,267.000244 134.051712,266.803589 127.816093,267.080627 
	C124.546532,267.225861 123.053329,266.076080 122.456459,262.973846 
	C122.130272,261.278534 121.231880,259.693298 120.295837,257.792175 
z"/>
<path fill="#FEFEFE" opacity="1.000000" stroke="none" 
	d="
M323.042358,252.793015 
	C320.003204,258.307281 315.485809,260.195343 309.671295,260.078033 
	C305.940094,260.002716 302.064026,260.221039 298.516296,261.232056 
	C297.036926,261.653656 296.242065,264.477173 294.752106,266.809387 
	C289.684967,266.809387 283.595032,266.809387 277.021942,266.809387 
	C277.021942,255.791077 276.928375,244.875183 277.177673,233.967117 
	C277.200684,232.959839 279.388397,231.178329 280.601929,231.151413 
	C290.904449,230.922836 301.263580,230.388016 311.507965,231.191498 
	C321.947113,232.010239 328.605499,239.040619 323.042358,252.793015 
M301.532501,245.970856 
	C300.709381,245.974457 299.831238,245.799637 299.078644,246.031830 
	C298.324493,246.264526 297.695709,246.903503 297.011963,247.364426 
	C297.768005,247.914566 298.484406,248.857544 299.287781,248.938614 
	C301.404907,249.152237 303.567871,249.086548 305.693451,248.906464 
	C306.166534,248.866394 306.759460,247.948883 306.912842,247.338730 
	C306.996704,247.005005 306.330231,246.157944 305.907898,246.084549 
	C304.786652,245.889725 303.614227,245.989502 301.532501,245.970856 
z"/>
<path fill="#FDFEFE" opacity="1.000000" stroke="none" 
	d="
M325.990845,212.948334 
	C324.504974,213.935623 323.022156,214.903076 321.538300,214.904709 
	C249.279510,214.984329 177.020630,214.980804 104.761757,214.986420 
	C98.967529,214.986877 93.173294,214.986481 87.192764,214.986481 
	C87.192764,213.231613 87.192764,211.833374 87.192764,210.021881 
	C88.810707,210.021881 90.269936,210.022003 91.729172,210.021866 
	C168.150436,210.015106 244.571701,209.993912 320.992828,210.093781 
	C322.704712,210.096024 326.106354,208.058731 325.990845,212.948334 
z"/>
<path fill="#FEFEFE" opacity="1.000000" stroke="none" 
	d="
M149.032028,243.015732 
	C149.030060,238.887665 149.030060,235.256195 149.030060,231.030746 
	C156.633377,231.030746 164.040466,230.895782 171.428970,231.205048 
	C172.331482,231.242828 173.832962,233.645279 173.869385,234.984161 
	C174.099579,243.443970 173.971497,251.913040 174.018799,260.378723 
	C174.029205,262.240631 174.269714,264.101288 174.441833,266.482300 
	C166.143707,266.482300 157.835602,266.482300 149.033997,266.482300 
	C149.033997,258.993225 149.033997,251.252777 149.032028,243.015732 
z"/>
<path fill="#F6F5F3" opacity="1.000000" stroke="none" 
	d="
M335.980621,267.799164 
	C333.192627,268.393158 331.595215,267.508179 330.223389,264.725098 
	C324.824768,253.772980 324.526001,243.020889 330.366455,232.179382 
	C331.197693,230.636398 331.674225,228.902313 333.040253,227.133026 
	C336.847626,227.366089 339.929657,227.722748 343.006897,228.479523 
	C343.151428,229.857849 343.141449,230.894165 343.473907,231.805511 
	C348.139099,244.593124 347.272003,256.239777 336.640991,265.974396 
	C336.218323,266.361450 336.191772,267.181091 335.980621,267.799164 
z"/>
<path fill="#F8FAF9" opacity="1.000000" stroke="none" 
	d="
M414.962860,213.902863 
	C413.988159,214.574539 413.053192,214.952927 412.117615,214.954376 
	C393.625641,214.983200 375.133423,214.923767 356.641785,215.004105 
	C353.375458,215.018295 351.318390,214.356201 352.333221,209.990326 
	C356.414734,209.990326 360.695740,209.988770 364.976715,209.990601 
	C380.470215,209.997269 395.964203,210.067398 411.456818,209.953491 
	C414.162842,209.933594 415.561157,210.490189 414.962860,213.902863 
z"/>
<path fill="#EAEBEC" opacity="1.000000" stroke="none" 
	d="
M333.184967,214.911362 
	C331.027100,210.024536 330.865021,204.810883 332.284058,199.916473 
	C332.866486,197.907532 335.969910,195.470718 338.047974,195.351883 
	C340.560974,195.208145 343.677917,196.784821 345.677338,198.573807 
	C348.672180,201.253433 348.656952,212.393036 346.169525,215.654312 
	C345.856750,216.064392 344.924683,216.002106 343.763153,216.267822 
	C339.892822,215.888443 336.538879,215.399902 333.184967,214.911362 
z"/>
<path fill="#CEDBE6" opacity="1.000000" stroke="none" 
	d="
M336.430115,267.896790 
	C336.191772,267.181091 336.218323,266.361450 336.640991,265.974396 
	C347.272003,256.239777 348.139099,244.593124 343.473907,231.805511 
	C343.141449,230.894165 343.151428,229.857849 343.373535,228.351517 
	C344.772766,227.773651 345.800659,227.723892 346.828552,227.674133 
	C348.705292,233.097488 350.942230,238.427719 352.373810,243.966141 
	C354.490967,252.156891 351.189331,259.545044 347.637512,266.638672 
	C347.132996,267.646271 344.507782,267.777771 342.825531,267.961395 
	C340.865723,268.175323 338.863464,268.000549 336.430115,267.896790 
z"/>
<path fill="#CD6C6B" opacity="1.000000" stroke="none" 
	d="
M346.767670,227.384186 
	C345.800659,227.723892 344.772766,227.773651 343.378265,227.951401 
	C339.929657,227.722748 336.847626,227.366089 333.360901,226.937531 
	C332.953400,225.565964 332.950623,224.266251 333.390503,222.767395 
	C336.913208,222.688568 339.993286,222.808899 343.073334,222.929214 
	C344.284485,224.317551 345.495636,225.705887 346.767670,227.384186 
z"/>
<path fill="#CD6C6B" opacity="1.000000" stroke="none" 
	d="
M333.105530,215.305206 
	C336.538879,215.399902 339.892822,215.888443 343.543030,216.595093 
	C343.754608,217.803238 343.669891,218.793274 342.815918,219.958191 
	C339.334106,220.101715 336.621582,220.070328 333.909058,220.038940 
	C333.909058,220.038940 333.983734,220.009018 334.080322,219.747314 
	C333.819214,219.290253 333.461456,219.094879 333.103699,218.899506 
	C333.077850,217.832687 333.051971,216.765869 333.105530,215.305206 
z"/>
<path fill="#F6F5F3" opacity="1.000000" stroke="none" 
	d="
M333.892059,220.342178 
	C336.621582,220.070328 339.334106,220.101715 342.497009,220.163757 
	C342.966370,220.878540 342.985382,221.562653 343.038879,222.587982 
	C339.993286,222.808899 336.913208,222.688568 333.484344,222.387970 
	C333.382050,221.686951 333.628540,221.166183 333.892059,220.342178 
z"/>
<path fill="#F6F5F3" opacity="1.000000" stroke="none" 
	d="
M333.062195,219.187698 
	C333.461456,219.094879 333.819214,219.290253 334.062042,219.783142 
	C333.638336,219.879059 333.329498,219.677475 333.062195,219.187698 
z"/>
<path fill="#000000" opacity="1.000000" stroke="none" 
	d="
M301.997314,245.971466 
	C303.614227,245.989502 304.786652,245.889725 305.907898,246.084549 
	C306.330231,246.157944 306.996704,247.005005 306.912842,247.338730 
	C306.759460,247.948883 306.166534,248.866394 305.693451,248.906464 
	C303.567871,249.086548 301.404907,249.152237 299.287781,248.938614 
	C298.484406,248.857544 297.768005,247.914566 297.011963,247.364426 
	C297.695709,246.903503 298.324493,246.264526 299.078644,246.031830 
	C299.831238,245.799637 300.709381,245.974457 301.997314,245.971466 
z"/>
</svg>